<svg width="40" height="46" viewBox="0 0 40 46" fill="none" xmlns="http://www.w3.org/2000/svg">
<path d="M15 22.5C15 26.6421 11.6421 30 7.5 30C3.35786 30 0 26.6421 0 22.5C0 18.3579 3.35786 15 7.5 15C11.6421 15 15 18.3579 15 22.5Z" fill="white"/>
<path d="M40 7.5C40 11.6421 36.6421 15 32.5 15C28.3579 15 25 11.6421 25 7.5C25 3.35786 28.3579 0 32.5 0C36.6421 0 40 3.35786 40 7.5Z" fill="white"/>
<path d="M40 38.5C40 42.6421 36.6421 46 32.5 46C28.3579 46 25 42.6421 25 38.5C25 34.3579 28.3579 31 32.5 31C36.6421 31 40 34.3579 40 38.5Z" fill="white"/>
<path d="M11.0692 18.2989L30.5743 6.11075L32.8211 9.70647L13.316 21.8946L11.0692 18.2989Z" fill="white"/>
<path d="M28.5663 38.5087L8.95559 26.4912L11.1729 22.8729L30.7836 34.8903L28.5663 38.5087Z" fill="white"/>
</svg>
